<?xml version="1.0" encoding="utf-8"?>
<!-- Generator: Adobe Illustrator 16.0.0, SVG Export Plug-In . SVG Version: 6.00 Build 0)  -->
<!DOCTYPE svg PUBLIC "-//W3C//DTD SVG 1.1//EN" "http://www.w3.org/Graphics/SVG/1.1/DTD/svg11.dtd">
<svg version="1.1" id="Layer_1" xmlns="http://www.w3.org/2000/svg" xmlns:xlink="http://www.w3.org/1999/xlink" x="0px" y="0px"
	 width="113.39px" height="116.22px" viewBox="0 0 113.39 116.22" enable-background="new 0 0 113.39 116.22" xml:space="preserve">
<g>
	<polygon fill="#CB3727" points="96.367,18.543 110.805,36.356 110.805,27.855 96.367,10.043 	"/>
	<polygon fill="#CB3727" points="96.367,37.917 110.805,55.73 110.805,47.23 96.367,29.417 	"/>
	<polygon fill="#CB3727" points="96.367,57.292 110.805,75.105 110.805,66.605 96.367,48.792 	"/>
	<polygon fill="#CB3727" points="96.367,76.666 110.805,94.48 110.805,85.979 96.367,68.167 	"/>
	<polygon fill="#CB3727" points="96.367,96.04 110.805,113.854 110.805,105.354 96.367,87.541 	"/>
</g>
<path fill="#363795" d="M102.104,0.907H0.096v100.738l11.379,14.039h102.007V14.946L102.104,0.907z M109.035,111.237H13.594
	l-7.332-9.046h95.226V7.209l7.547,9.312V111.237z"/>
<g>
	<g>
		<path fill="#2B297C" d="M20.509,89.996c-0.36,0-0.653-0.326-0.653-0.783V62.597c0-0.327,0.293-0.621,0.653-0.621h6.989
			c4.049,0,8.098,1.765,10.842,5.128c4.932,5.977,4.05,14.826-1.895,19.725c-2.612,2.156-5.78,3.201-8.947,3.168H20.509z
			 M27.498,67.07H24.95v17.832h2.548c2.024,0.031,4.049-0.654,5.682-2.025c3.82-3.103,4.375-8.752,1.241-12.541
			C32.658,68.182,30.076,67.07,27.498,67.07z"/>
		<path fill="#2B297C" d="M66.492,90.029L55.813,79.35l-10.68,10.68v-27.4c0-0.359,0.295-0.653,0.622-0.653h3.789
			c0.359,0,0.62,0.294,0.62,0.653V77.88l5.649-5.649l5.649,5.649V62.629c0-0.359,0.295-0.653,0.654-0.653h3.755
			c0.359,0,0.62,0.294,0.62,0.653V90.029z"/>
		<path fill="#2B297C" d="M89.225,81.766c0,0.229-0.032,2.189-1.273,4.182c-1.143,1.895-3.494,4.114-8.295,4.114
			c-3.788,0-6.76-1.6-8.359-4.441c-0.752-1.372-1.045-2.71-1.145-3.56c0-0.065-0.032-0.131-0.032-0.196
			c0-0.326,0.262-0.62,0.587-0.653h4.018c0.262,0.033,0.457,0.196,0.522,0.457v0.033c0,0.033,0.034,0.064,0.034,0.098
			c0.064,0.393,0.227,0.947,0.554,1.438c0.687,1.143,1.959,1.73,3.821,1.73c1.992,0,3.266-0.555,3.951-1.666
			c0.457-0.751,0.523-1.566,0.523-1.566c0-0.915-0.229-1.992-1.927-2.68c-1.241-0.521-2.548-0.555-2.548-0.555
			c-0.229,0-2.318-0.032-4.475-0.882c-3.298-1.339-5.094-3.951-5.094-7.38c0-0.327,0.064-3.363,2.449-5.748
			c1.698-1.73,4.115-2.612,7.119-2.612c1.926,0,4.703,0.425,6.825,2.58c2.058,2.09,2.581,4.735,2.711,6.042v0.064
			c0,0.393-0.261,0.688-0.621,0.688h-3.95c-0.262-0.034-0.49-0.262-0.557-0.523V70.63c-0.098-0.457-0.262-1.11-0.587-1.763
			c-0.458-0.816-1.339-1.895-3.821-1.895c-1.601,0-2.776,0.359-3.526,1.109c-0.883,0.883-0.948,2.156-0.948,2.156
			c0,0.914,0.23,1.959,1.928,2.645c1.24,0.49,2.547,0.523,2.547,0.523c0.229,0,2.318,0.033,4.475,0.914
			C87.429,75.691,89.225,78.338,89.225,81.766z"/>
	</g>
	<g>
		<path fill="#FFFFFF" d="M18.616,88.104c-0.359,0-0.653-0.326-0.653-0.783V60.703c0-0.326,0.294-0.62,0.653-0.62h6.987
			c4.05,0,8.101,1.763,10.844,5.128c4.932,5.975,4.049,14.826-1.895,19.725c-2.612,2.155-5.78,3.2-8.949,3.168H18.616z
			 M25.604,65.178h-2.546v17.83h2.546c2.026,0.033,4.05-0.652,5.684-2.023c3.821-3.103,4.376-8.754,1.241-12.541
			C30.765,66.288,28.184,65.178,25.604,65.178z"/>
		<path fill="#FFFFFF" d="M64.6,88.136L53.921,77.457l-10.68,10.679V60.736c0-0.359,0.294-0.653,0.621-0.653h3.788
			c0.359,0,0.621,0.294,0.621,0.653v15.25l5.65-5.648l5.649,5.648v-15.25c0-0.359,0.295-0.653,0.654-0.653h3.754
			c0.361,0,0.621,0.294,0.621,0.653V88.136z"/>
		<path fill="#FFFFFF" d="M87.332,79.873c0,0.229-0.033,2.188-1.273,4.181c-1.143,1.894-3.495,4.115-8.295,4.115
			c-3.789,0-6.761-1.601-8.36-4.442c-0.752-1.371-1.045-2.711-1.144-3.559c0-0.066-0.033-0.131-0.033-0.197
			c0-0.326,0.262-0.62,0.589-0.652h4.016c0.262,0.032,0.458,0.195,0.523,0.457v0.033c0,0.031,0.034,0.064,0.034,0.098
			c0.064,0.392,0.227,0.947,0.553,1.438c0.688,1.143,1.96,1.73,3.822,1.73c1.991,0,3.266-0.556,3.951-1.666
			c0.457-0.751,0.521-1.568,0.521-1.568c0-0.913-0.227-1.991-1.925-2.678c-1.241-0.521-2.548-0.555-2.548-0.555
			c-0.229,0-2.32-0.032-4.475-0.882c-3.299-1.339-5.094-3.95-5.094-7.38c0-0.326,0.064-3.363,2.449-5.748
			c1.697-1.73,4.114-2.612,7.119-2.612c1.926,0,4.702,0.424,6.824,2.579c2.059,2.091,2.582,4.736,2.711,6.042v0.065
			c0,0.393-0.26,0.686-0.621,0.686h-3.95c-0.262-0.031-0.491-0.262-0.556-0.521v-0.099c-0.098-0.457-0.261-1.11-0.588-1.763
			c-0.457-0.816-1.338-1.895-3.82-1.895c-1.601,0-2.777,0.359-3.527,1.109c-0.882,0.883-0.947,2.156-0.947,2.156
			c0,0.914,0.229,1.959,1.927,2.645c1.241,0.49,2.548,0.523,2.548,0.523c0.229,0,2.318,0.032,4.473,0.914
			C85.537,73.799,87.332,76.445,87.332,79.873z"/>
	</g>
</g>
</svg>
